# File created by Blade
# Date/Time:  Thu Jan 22 16:31:11 2015
# Frame Rate: 120.000 fps
#------------------------------------------------------
:FULLY-SPECIFIED
:DEGREES
399
root 25.395911 18.837969 -1.460443 -3.199957 25.442612 -28.636531
RightUpLeg 15.193933 -10.718463 -29.441861
RightLeg -0.377138 -0.000000 0.000000
RightFoot -13.967900 -10.101415 39.316511
RightToeBase 16.110846 -0.000000 -0.000000
LeftUpLeg -102.081787 30.370843 9.470753
LeftLeg 127.575678 -0.000000 -0.000000
LeftFoot -38.647228 11.815501 -13.722832
LeftToeBase -2.842123 -0.000000 0.000000
Spine 33.634380 -5.411154 -47.328994
RightShoulder -6.322531 1.178443 -47.680425
RightArm -8.702433 29.800410 3.977360
RightForeArm 10.677063 -0.000000 15.486594
RightHand 13.632551 -0.000000 -42.958177
RightHandThumb1 -24.326973 -0.000000 -32.862282
LeftShoulder -16.213598 25.802904 9.451827
LeftArm 74.282539 -58.476547 -117.650182
LeftForeArm -6.026476 -0.000000 24.278395
LeftHand -32.085859 0.000000 98.669056
LeftHandThumb1 -26.253704 0.000000 33.147579
Head -1.823853 5.823004 -43.793992
400
root 25.413239 18.820911 -1.443166 -3.355658 25.401228 -28.706722
RightUpLeg 15.296426 -10.590599 -29.387171
RightLeg -0.343946 -0.000000 0.000000
RightFoot -14.054545 -10.223765 39.132877
RightToeBase 16.125386 -0.000000 -0.000000
LeftUpLeg -101.964819 30.405384 9.583298
LeftLeg 127.697766 -0.000000 -0.000000
LeftFoot -38.686386 11.855001 -13.691691
LeftToeBase -2.999718 -0.000000 0.000000
Spine 33.554032 -5.314798 -47.272470
RightShoulder -6.398817 1.372099 -47.943779
RightArm -8.550842 30.006674 3.529261
RightForeArm 10.384239 -0.000000 15.516410
RightHand 13.508101 -0.000000 -42.964890
RightHandThumb1 -24.326973 -0.000000 -32.862282
LeftShoulder -16.261376 25.790133 9.449465
LeftArm 74.150070 -58.400046 -117.694208
LeftForeArm -5.810418 0.000000 24.524779
LeftHand -32.229584 -0.000000 98.784755
LeftHandThumb1 -26.253704 0.000000 33.147579
Head -1.781781 5.908015 -44.159106
401
root 25.432241 18.805871 -1.428153 -3.456602 25.373865 -28.738442
RightUpLeg 15.374972 -10.472074 -29.367971
RightLeg -0.321585 -0.000000 0.000000
RightFoot -14.089671 -10.343868 39.037629
RightToeBase 16.065594 -0.000000 -0.000000
LeftUpLeg -101.891037 30.413105 9.663944
LeftLeg 127.821226 -0.000000 -0.000000
LeftFoot -38.668263 11.858438 -13.707041
LeftToeBase -3.079067 -0.000000 0.000000
Spine 33.459216 -5.256739 -47.278535
RightShoulder -6.477852 1.641021 -48.133823
RightArm -8.350335 30.037275 3.022177
RightForeArm 10.333344 -0.000000 15.474064
RightHand 13.528670 -0.000000 -42.983362
RightHandThumb1 -24.326973 -0.000000 -32.862282
LeftShoulder -16.403190 25.924274 9.394596
LeftArm 74.460639 -58.211658 -118.155981
LeftForeArm -5.562369 0.000000 24.714269
LeftHand -32.097588 -0.000000 98.869213
LeftHandThumb1 -26.253704 0.000000 33.147579
Head -1.734886 6.018868 -44.492751
402
root 25.454362 18.790576 -1.412905 -3.528505 25.341254 -28.733085
RightUpLeg 15.447727 -10.405816 -29.407821
RightLeg -0.308453 -0.000000 0.000000
RightFoot -14.079678 -10.381988 39.027286
RightToeBase 16.074137 -0.000000 -0.000000
LeftUpLeg -101.823598 30.429728 9.690475
LeftLeg 127.944268 -0.000000 -0.000000
LeftFoot -38.673763 11.850760 -13.751441
LeftToeBase -3.169932 -0.000000 0.000000
Spine 33.339656 -5.185947 -47.319284
RightShoulder -6.557962 1.833261 -48.274397
RightArm -8.139134 30.203132 2.494172
RightForeArm 10.259557 -0.000000 15.453884
RightHand 13.590336 -0.000000 -43.153083
RightHandThumb1 -24.326973 -0.000000 -32.862282
LeftShoulder -16.452678 25.922971 9.415770
LeftArm 74.522814 -58.157614 -118.434871
LeftForeArm -5.307827 -0.000000 24.949067
LeftHand -31.990127 0.000000 99.000762
LeftHandThumb1 -26.253704 0.000000 33.147579
Head -1.667531 6.183618 -44.811815
403
root 25.475888 18.774334 -1.398565 -3.583454 25.320241 -28.718026
RightUpLeg 15.516559 -10.362765 -29.456017
RightLeg -0.298831 -0.000000 0.000000
RightFoot -14.059956 -10.452591 38.970383
RightToeBase 16.036569 -0.000000 -0.000000
LeftUpLeg -101.773374 30.435971 9.685486
LeftLeg 128.057615 -0.000000 -0.000000
LeftFoot -38.692111 11.881387 -13.755667
LeftToeBase -3.310259 -0.000000 0.000000
Spine 33.197475 -5.129902 -47.381607
RightShoulder -6.548421 2.075973 -48.387051
RightArm -8.080505 30.372314 1.878463
RightForeArm 9.733385 0.000000 15.537842
RightHand 13.282158 0.000000 -43.175213
RightHandThumb1 -24.326973 -0.000000 -32.862282
LeftShoulder -16.442641 26.018430 9.514970
LeftArm 74.539780 -58.103799 -118.690465
LeftForeArm -5.182954 -0.000000 25.101467
LeftHand -31.844337 -0.000000 99.176235
LeftHandThumb1 -26.253704 0.000000 33.147579
Head -1.478625 6.443574 -45.026976
404
root 25.497545 18.758717 -1.384259 -3.634555 25.304289 -28.696335
RightUpLeg 15.583999 -10.347846 -29.517628
RightLeg -0.286950 -0.000000 0.000000
RightFoot -14.014846 -10.500006 38.893786
RightToeBase 16.001002 -0.000000 -0.000000
LeftUpLeg -101.717255 30.433289 9.678849
LeftLeg 128.167246 -0.000000 -0.000000
LeftFoot -38.715242 11.915029 -13.763348
LeftToeBase -3.423988 -0.000000 0.000000
Spine 33.088862 -5.069989 -47.451608
RightShoulder -6.604943 2.174160 -48.525836
RightArm -7.963783 30.698388 1.410108
RightForeArm 9.418282 -0.000000 15.684626
RightHand 13.262398 -0.000000 -43.248488
RightHandThumb1 -24.326973 -0.000000 -32.862282
LeftShoulder -16.464520 26.069992 9.621112
LeftArm 74.433557 -58.026185 -118.759334
LeftForeArm -5.114255 0.000000 25.156467
LeftHand -31.673880 -0.000000 99.373556
LeftHandThumb1 -26.253704 0.000000 33.147579
Head -1.383280 6.671218 -45.264649
405
root 25.515622 18.742850 -1.370949 -3.663590 25.295031 -28.713399
RightUpLeg 15.618390 -10.327982 -29.529265
RightLeg -0.270434 -0.000000 0.000000
RightFoot -14.007048 -10.556711 38.869347
RightToeBase 15.994723 -0.000000 -0.000000
LeftUpLeg -101.730947 30.440759 9.673834
LeftLeg 128.273772 -0.000000 -0.000000
LeftFoot -38.728032 11.960547 -13.753575
LeftToeBase -3.484046 -0.000000 0.000000
Spine 32.962337 -5.070712 -47.480097
RightShoulder -6.612385 2.351850 -48.689618
RightArm -7.928819 30.923732 0.923783
RightForeArm 9.354951 -0.000000 15.925181
RightHand 13.251568 -0.000000 -43.359294
RightHandThumb1 -24.326973 -0.000000 -32.862282
LeftShoulder -16.504207 26.209246 9.678844
LeftArm 74.431752 -57.927473 -118.919526
LeftForeArm -5.051968 0.000000 25.221882
LeftHand -31.555219 -0.000000 99.592473
LeftHandThumb1 -26.253704 0.000000 33.147579
Head -1.322954 6.896541 -45.580883
406
root 25.532532 18.731036 -1.357965 -3.695807 25.272553 -28.723673
RightUpLeg 15.648877 -10.248743 -29.524827
RightLeg -0.259482 -0.000000 0.000000
RightFoot -14.047092 -10.643119 38.866945
RightToeBase 16.002970 -0.000000 -0.000000
LeftUpLeg -101.714477 30.461366 9.688523
LeftLeg 128.366633 -0.000000 -0.000000
LeftFoot -38.733821 11.937547 -13.792162
LeftToeBase -3.583961 -0.000000 0.000000
Spine 32.864015 -5.043878 -47.527893
RightShoulder -6.663130 2.534339 -48.854972
RightArm -7.863283 31.221649 0.492866
RightForeArm 9.058168 -0.000000 16.138946
RightHand 13.192719 -0.000000 -43.331316
RightHandThumb1 -24.326973 -0.000000 -32.862282
LeftShoulder -16.557100 26.255665 9.773610
LeftArm 74.279619 -57.853085 -118.926302
LeftForeArm -5.014491 0.000000 25.273986
LeftHand -31.499301 -0.000000 99.774335
LeftHandThumb1 -26.253704 0.000000 33.147579
Head -1.293548 7.013879 -45.821525
407
root 25.550442 18.718078 -1.344114 -3.735394 25.259853 -28.708197
RightUpLeg 15.708910 -10.199184 -29.563335
RightLeg -0.255266 -0.000000 0.000000
RightFoot -14.049790 -10.689008 38.801068
RightToeBase 15.961902 -0.000000 -0.000000
LeftUpLeg -101.667983 30.466228 9.690397
LeftLeg 128.461224 -0.000000 -0.000000
LeftFoot -38.748019 11.942098 -13.807474
LeftToeBase -3.730518 -0.000000 0.000000
Spine 32.790123 -5.003081 -47.588351
RightShoulder -6.757734 2.635786 -49.024489
RightArm -7.692061 31.482665 0.124899
RightForeArm 8.927712 -0.000000 16.281298
RightHand 13.299814 -0.000000 -43.623433
RightHandThumb1 -24.326973 -0.000000 -32.862282
LeftShoulder -16.599001 26.281996 9.875960
LeftArm 74.193997 -57.788524 -118.998114
LeftForeArm -4.909958 0.000000 25.275146
LeftHand -31.465746 -0.000000 99.909765
LeftHandThumb1 -26.253704 0.000000 33.147579
Head -1.279996 7.194695 -46.165197
408
root 25.566432 18.704051 -1.330184 -3.770018 25.231694 -28.730514
RightUpLeg 15.744805 -10.121248 -29.549966
RightLeg -0.262521 -0.000000 0.000000
RightFoot -14.071903 -10.767711 38.751163
RightToeBase 15.949150 -0.000000 -0.000000
LeftUpLeg -101.661055 30.494321 9.707821
LeftLeg 128.557426 -0.000000 -0.000000
LeftFoot -38.768963 11.975704 -13.813238
LeftToeBase -3.826975 -0.000000 0.000000
Spine 32.697251 -4.989106 -47.601911
RightShoulder -6.807129 2.932846 -49.191804
RightArm -7.564362 31.552363 -0.321142
RightForeArm 8.790984 0.000000 16.351228
RightHand 13.528964 -0.000000 -43.638563
RightHandThumb1 -24.326973 -0.000000 -32.862282
LeftShoulder -16.714820 26.362586 9.905598
LeftArm 74.322093 -57.655037 -119.281611
LeftForeArm -4.710534 -0.000000 25.298802
LeftHand -31.431229 -0.000000 99.980433
LeftHandThumb1 -26.253704 0.000000 33.147579
Head -1.253029 7.304842 -46.523055
